<svg width="11" height="11" viewBox="0 0 11 11" fill="none" xmlns="http://www.w3.org/2000/svg">
<path d="M7.70455 3.82705C7.74284 3.8653 7.77322 3.91072 7.79394 3.96071C7.81467 4.01071 7.82533 4.0643 7.82533 4.11843C7.82533 4.17255 7.81467 4.22614 7.79394 4.27614C7.77322 4.32613 7.74284 4.37155 7.70455 4.4098L4.82165 7.2927C4.7834 7.33099 4.73798 7.36137 4.68798 7.3821C4.63798 7.40282 4.58439 7.41349 4.53027 7.41349C4.47615 7.41349 4.42256 7.40282 4.37256 7.3821C4.32256 7.36137 4.27714 7.33099 4.23889 7.2927L3.00336 6.05717C2.92609 5.9799 2.88267 5.87508 2.88267 5.7658C2.88267 5.65651 2.92609 5.55169 3.00336 5.47442C3.08064 5.39714 3.18545 5.35372 3.29474 5.35372C3.40403 5.35372 3.50884 5.39714 3.58612 5.47442L4.53027 6.41908L7.12179 3.82705C7.16004 3.78875 7.20546 3.75838 7.25546 3.73765C7.30545 3.71693 7.35905 3.70626 7.41317 3.70626C7.46729 3.70626 7.52088 3.71693 7.57088 3.73765C7.62088 3.75838 7.6663 3.78875 7.70455 3.82705ZM10.7079 5.35395C10.7079 6.41286 10.3939 7.448 9.8056 8.32845C9.2173 9.2089 8.38113 9.89513 7.40282 10.3004C6.42452 10.7056 5.34802 10.8116 4.30945 10.605C3.27089 10.3984 2.3169 9.88853 1.56814 9.13977C0.819375 8.39101 0.309461 7.43702 0.102877 6.39846C-0.103706 5.35989 0.00231978 4.28339 0.407548 3.30508C0.812776 2.32678 1.49901 1.4906 2.37946 0.902304C3.25991 0.314004 4.29504 0 5.35396 0C6.77345 0.00149901 8.13438 0.566056 9.13812 1.56979C10.1419 2.57353 10.7064 3.93446 10.7079 5.35395ZM9.88422 5.35395C9.88422 4.45795 9.61853 3.58207 9.12074 2.83707C8.62294 2.09207 7.91541 1.51142 7.08761 1.16853C6.25982 0.825646 5.34893 0.735931 4.47014 0.910733C3.59136 1.08553 2.78414 1.517 2.15057 2.15057C1.517 2.78414 1.08554 3.59136 0.910735 4.47014C0.735934 5.34893 0.825648 6.25981 1.16853 7.08761C1.51142 7.91541 2.09207 8.62294 2.83707 9.12073C3.58207 9.61853 4.45795 9.88422 5.35396 9.88422C6.55504 9.88286 7.70654 9.40513 8.55583 8.55583C9.40513 7.70654 9.88286 6.55504 9.88422 5.35395Z" fill="white"/>
</svg>
